# xmcd
#
# Track frame offsets:
#   150
#   16226
#   29576
#   46725
#   67989
#   91604
#   115289
#   134678
#   154564
#   172487
#   196172
#   215813
#   233650
#   250840
#   268838
#   285693
#   301976
#   321335
#
# Disc length: 4540 seconds
#
# Revision: 0
# Processed by: cddbd v1.5.2PL0 Copyright (c) Steve Scherf et al.
# Submitted via: GXTranscoder 2.0.1939
#
DISCID=0411ba12
DTITLE=zabavna muzika - zabavna muzika
DYEAR=1900
DGENRE=zabavna
TTITLE0=sedam dana
TTITLE1=Azra - usne vrele visnje
TTITLE2=aaaaaaaa
TTITLE3=ssssssssss
TTITLE4=Divlje jagode - jedina moja
TTITLE5=kisa pada
TTITLE6=Divlje jagode - krivo je more
TTITLE7=Divlje jagode - Labude kada rata ne bude
TTITLE8=Divlje jagode - Sarajevo ti i ja
TTITLE9=Zbog tebe draga
TTITLE10=jjjjjjjjjjj
TTITLE11=dddddddddddd
TTITLE12=ne lomi me
TTITLE13=nnnnnnnnnnnnnn
TTITLE14=nnn
TTITLE15=n
TTITLE16=nnnn
TTITLE17=nnnnnnnnnnnnnnnnnnnnnn
EXTD=
EXTT0=
EXTT1=
EXTT2=
EXTT3=
EXTT4=
EXTT5=
EXTT6=
EXTT7=
EXTT8=
EXTT9=
EXTT10=
EXTT11=
EXTT12=
EXTT13=
EXTT14=
EXTT15=
EXTT16=
EXTT17=
PLAYORDER=
